# xmcd
#
# Track frame offsets: 
#        150
#        13227
#        26730
#        40430
#        53552
#        66265
#        79540
#        95310
#        108650
#        120547
#        133387
#        146672
#        159392
#        172975
#        186807
#        200622
#        213965
#        226855
#        242077
#        256572
#
# Disc length: 3584 seconds
#
# Revision: 0
# Processed by: cddbd v1.5.2PL0 Copyright (c) Steve Scherf et al.
# Submitted via: ExactAudioCopy v1.0b3
#
DISCID=120dfe14
DTITLE=Moore, Gatemouth - Cryin' and Singing The Blues
DYEAR=2004
DGENRE=Blues
TTITLE0=I Ain't Mad at You Pretty Baby
TTITLE1=Get Your House In Order
TTITLE2=It Ain't None Of Me
TTITLE3=Cryin' and Singing The Blues
TTITLE4=Did You Ever Love A Woman
TTITLE5=I'm Going Way Back Home
TTITLE6=Isabel
TTITLE7=I Put Her Out
TTITLE8=Walking My Blues Away
TTITLE9=Bum Dee Dah Ra Dee
TTITLE10=I'd Give It To You
TTITLE11=They Can't Do This To You
TTITLE12=Christmas Blues
TTITLE13=Let's Go Back And Try One More Time
TTITLE14=Love Doctor Blues
TTITLE15=Nobody Knows The Way I Feel
TTITLE16=I Ain't Mad At You Pretty Baby
TTITLE17=It Ain't None Of Me
TTITLE18=I Put Her Out
TTITLE19=They Can't Do This To You
EXTD=
EXTT0=
EXTT1=
EXTT2=
EXTT3=
EXTT4=
EXTT5=
EXTT6=
EXTT7=
EXTT8=
EXTT9=
EXTT10=
EXTT11=
EXTT12=
EXTT13=
EXTT14=
EXTT15=
EXTT16=
EXTT17=
EXTT18=
EXTT19=
PLAYORDER=
